<svg width="18" height="18" viewBox="0 0 18 18" fill="none" xmlns="http://www.w3.org/2000/svg">
<path d="M5.25 6H11.25M5.25 9H8.25M14.0374 15.7724V15.7724C14.2027 15.8716 14.2853 15.9212 14.3452 15.9503C15.2899 16.4086 16.4011 15.7795 16.4941 14.7336C16.5 14.6673 16.5 14.5709 16.5 14.3781V9C16.5 6.67029 16.5 5.50544 16.1194 4.58658C15.6119 3.36144 14.6386 2.38807 13.4134 1.8806C12.4946 1.5 11.3297 1.5 9 1.5H8.25C6.62228 1.5 5.80842 1.5 5.1428 1.68772C3.46847 2.15993 2.15993 3.46847 1.68772 5.1428C1.5 5.80842 1.5 6.62228 1.5 8.25V8.25C1.5 9.87772 1.5 10.6916 1.68772 11.3572C2.15993 13.0315 3.46847 14.3401 5.1428 14.8123C5.80842 15 6.62228 15 8.25 15H11.2487C11.3641 15 11.4218 15 11.4786 15.0013C12.3076 15.0201 13.119 15.2448 13.8396 15.6552C13.8889 15.6833 13.9384 15.713 14.0374 15.7724Z" stroke="#2F384C" stroke-width="1.5" stroke-linecap="round" stroke-linejoin="round"/>
</svg>
