<svg width="18" height="18" viewBox="0 0 18 18" fill="none" xmlns="http://www.w3.org/2000/svg">
<path d="M7.125 7.5C7.125 7.70711 6.95711 7.875 6.75 7.875C6.54289 7.875 6.375 7.70711 6.375 7.5M7.125 7.5C7.125 7.29289 6.95711 7.125 6.75 7.125C6.54289 7.125 6.375 7.29289 6.375 7.5M7.125 7.5H6.375M11.625 7.5C11.625 7.70711 11.4571 7.875 11.25 7.875C11.0429 7.875 10.875 7.70711 10.875 7.5M11.625 7.5C11.625 7.29289 11.4571 7.125 11.25 7.125C11.0429 7.125 10.875 7.29289 10.875 7.5M11.625 7.5H10.875M12.0002 11.25C11.316 12.1608 10.2268 12.75 8.99991 12.75C7.77304 12.75 6.68379 12.1608 5.99963 11.25M9 16.5V16.5C13.1421 16.5 16.5 13.1421 16.5 9V9C16.5 4.85786 13.1421 1.5 9 1.5V1.5C4.85786 1.5 1.5 4.85786 1.5 9V9C1.5 13.1421 4.85786 16.5 9 16.5Z" stroke="black" stroke-width="1.5" stroke-linecap="round" stroke-linejoin="round"/>
</svg>
