<svg width="24" height="24" viewBox="0 0 24 24" fill="none" xmlns="http://www.w3.org/2000/svg">
<g clip-path="url(#clip0_1_292)">
<path d="M6.55196 11.25C6.22572 11.25 6.0626 11.25 5.91568 11.2036C5.78564 11.1626 5.66538 11.0954 5.56227 11.0061C5.44577 10.9053 5.36028 10.7664 5.1893 10.4886L4.33542 9.10099C2.1403 5.53393 1.04274 3.7504 1.26983 2.75441C1.46586 1.89469 2.10028 1.20182 2.93944 0.930999C3.91161 0.617244 5.78471 1.55379 9.5309 3.42689L19.5217 8.42228C21.8247 9.5738 22.9762 10.1496 23.3458 10.9287C23.6673 11.6067 23.6673 12.3933 23.3458 13.0713C22.9762 13.8504 21.8247 14.4262 19.5217 15.5777L9.5309 20.5731C5.78471 22.4462 3.91161 23.3827 2.93944 23.069C2.10028 22.7982 1.46586 22.1053 1.26983 21.2456C1.04274 20.2496 2.1403 18.466 4.33542 14.899L5.18929 13.5114C5.36027 13.2336 5.44576 13.0947 5.56226 12.9939C5.66537 12.9046 5.78563 12.8374 5.91566 12.7964C6.06259 12.75 6.22571 12.75 6.55194 12.75L11.25 12.75C11.6642 12.75 12 12.4142 12 12C12 11.5858 11.6642 11.25 11.25 11.25L6.55196 11.25Z" fill="#5057EA"/>
</g>
<defs>
<clipPath id="clip0_1_292">
<rect width="24" height="24" fill="white"/>
</clipPath>
</defs>
</svg>
