<svg width="18" height="18" viewBox="0 0 18 18" fill="none" xmlns="http://www.w3.org/2000/svg">
<g clip-path="url(#clip0_1_373)">
<path d="M8.25 9.75L8.53457 10.4899C9.5894 13.2326 10.1168 14.6039 10.825 14.9489C11.4376 15.2472 12.1598 15.2132 12.7416 14.8586C13.4143 14.4486 13.8104 13.0338 14.6028 10.2041L15.716 6.22824C16.2177 4.43672 16.4685 3.54096 16.2357 2.92628C16.0327 2.39035 15.6096 1.96724 15.0737 1.76427C14.459 1.53147 13.5633 1.78228 11.7718 2.28391L7.79584 3.39716C4.96617 4.18947 3.55133 4.58563 3.14136 5.25828C2.78678 5.84005 2.75275 6.56231 3.05106 7.17484C3.39597 7.88306 4.76729 8.41049 7.50993 9.46536L8.25 9.75ZM8.25 9.75L10.125 7.875" stroke="#2F384C" stroke-width="1.5" stroke-linecap="round" stroke-linejoin="round"/>
</g>
<defs>
<clipPath id="clip0_1_373">
<rect width="18" height="18" fill="white"/>
</clipPath>
</defs>
</svg>
