<svg width="16" height="16" viewBox="0 0 16 16" fill="none" xmlns="http://www.w3.org/2000/svg">
<path d="M2.66665 3.33333L3.05928 10.0081C3.1084 10.8432 3.13296 11.2607 3.21785 11.6104C3.591 13.1474 4.83483 14.3202 6.39113 14.6025C6.74514 14.6667 7.16342 14.6667 7.99998 14.6667V14.6667C8.83654 14.6667 9.25482 14.6667 9.60883 14.6025C11.1651 14.3202 12.409 13.1474 12.7821 11.6104C12.867 11.2607 12.8916 10.8432 12.9407 10.008L13.3333 3.33333M2.66665 3.33333H1.33331M2.66665 3.33333H13.3333M13.3333 3.33333H14.6666M10.6666 3.33333L10.547 2.97438C10.3503 2.38427 10.2519 2.08921 10.0695 1.87106C9.90842 1.67843 9.70154 1.52932 9.46785 1.43741C9.20321 1.33333 8.89219 1.33333 8.27016 1.33333H7.7298C7.10777 1.33333 6.79675 1.33333 6.53211 1.43741C6.29842 1.52932 6.09154 1.67843 5.93045 1.87106C5.74802 2.08921 5.64967 2.38427 5.45296 2.97438L5.33331 3.33333M6.66665 6.66666V11.3333M9.33331 6.66666V9.33333" stroke="#D83B3B" stroke-width="1.5" stroke-linecap="round" stroke-linejoin="round"/>
</svg>
