<svg width="18" height="18" viewBox="0 0 18 18" fill="none" xmlns="http://www.w3.org/2000/svg">
<path d="M10.5 6.375C10.5 6.58211 10.3321 6.75 10.125 6.75C9.9179 6.75 9.75 6.58211 9.75 6.375M10.5 6.375C10.5 6.16789 10.3321 6 10.125 6C9.9179 6 9.75 6.16789 9.75 6.375M10.5 6.375L9.75 6.375M14.25 11.2501V11.2501C14.7614 11.6336 15.0171 11.8254 15.2122 11.9003C16.0352 12.2164 16.952 11.758 17.1929 10.91C17.25 10.709 17.25 10.3893 17.25 9.75006L17.25 8.25004C17.25 7.61077 17.25 7.29113 17.1929 7.09017C16.952 6.24209 16.0351 5.78367 15.2121 6.0998C15.0171 6.17471 14.7614 6.3665 14.25 6.75007V6.75007L14.25 11.2501ZM7.5 15.75V15.75C9.12773 15.75 9.94159 15.75 10.6072 15.5623C12.2815 15.0901 13.5901 13.7815 14.0623 12.1072C14.25 11.4416 14.25 10.6277 14.25 9V9C14.25 7.37228 14.25 6.55842 14.0623 5.8928C13.5901 4.21847 12.2815 2.90993 10.6072 2.43772C9.94159 2.25 9.12773 2.25 7.5 2.25V2.25C5.87228 2.25 5.05842 2.25 4.3928 2.43772C2.71847 2.90993 1.40993 4.21847 0.937724 5.8928C0.75 6.55842 0.75 7.37228 0.75 9V9C0.75 10.6277 0.75 11.4416 0.937724 12.1072C1.40993 13.7815 2.71847 15.0901 4.3928 15.5623C5.05842 15.75 5.87228 15.75 7.5 15.75Z" stroke="black" stroke-opacity="0.63" stroke-width="1.5" stroke-linecap="round" stroke-linejoin="round"/>
</svg>
